<svg width="128" height="128" viewBox="0 0 128 128" fill="none" xmlns="http://www.w3.org/2000/svg">
<rect width="128" height="128" fill="white"/>
<path d="M70.0833 27.2917H56.9167C55.1063 27.2917 53.625 28.7729 53.625 30.5833C53.625 32.3937 55.1063 33.875 56.9167 33.875H70.0833C71.8938 33.875 73.375 32.3937 73.375 30.5833C73.375 28.7729 71.8938 27.2917 70.0833 27.2917ZM63.5 70.0833C65.3104 70.0833 66.7917 68.6021 66.7917 66.7917V53.625C66.7917 51.8146 65.3104 50.3333 63.5 50.3333C61.6896 50.3333 60.2083 51.8146 60.2083 53.625V66.7917C60.2083 68.6021 61.6896 70.0833 63.5 70.0833ZM86.6404 48.3254L89.1092 45.8567C89.7178 45.2443 90.0595 44.4159 90.0595 43.5525C90.0595 42.6891 89.7178 41.8607 89.1092 41.2483L89.0763 41.2154C88.4639 40.6068 87.6355 40.2651 86.7721 40.2651C85.9087 40.2651 85.0803 40.6068 84.4679 41.2154L81.9992 43.6842C76.7566 39.4653 70.2293 37.1656 63.5 37.1667C47.7 37.1667 34.27 50.2017 33.875 66.0017C33.7686 69.9583 34.4562 73.8961 35.8974 77.5825C37.3385 81.2688 39.5039 84.6289 42.2656 87.4643C45.0273 90.2996 48.3293 92.5527 51.9764 94.0903C55.6236 95.6279 59.542 96.419 63.5 96.4167C69.0771 96.4197 74.5416 94.8473 79.2642 91.8806C83.9868 88.9139 87.7754 84.6736 90.1936 79.648C92.6117 74.6225 93.5612 69.016 92.9326 63.4745C92.304 57.9329 90.1229 52.6816 86.6404 48.3254V48.3254ZM63.5 89.8333C50.7613 89.8333 40.4583 79.5304 40.4583 66.7917C40.4583 54.0529 50.7613 43.75 63.5 43.75C76.2387 43.75 86.5417 54.0529 86.5417 66.7917C86.5417 79.5304 76.2387 89.8333 63.5 89.8333Z" fill="#38B2AC"/>
<path d="M23.082 114H17.42V86.868H32.962V91.58H23.082V98.572H32.278V103.284H23.082V114Z" fill="#38B2AC"/>
</svg>
