<svg width="128" height="128" viewBox="0 0 128 128" fill="none" xmlns="http://www.w3.org/2000/svg">
<g clip-path="url(#clip0)">
<path d="M74.25 4.375H52.75C49.7938 4.375 47.375 6.79375 47.375 9.75C47.375 12.7063 49.7938 15.125 52.75 15.125H74.25C77.2063 15.125 79.625 12.7063 79.625 9.75C79.625 6.79375 77.2063 4.375 74.25 4.375ZM63.5 74.25C66.4563 74.25 68.875 71.8313 68.875 68.875V47.375C68.875 44.4187 66.4563 42 63.5 42C60.5438 42 58.125 44.4187 58.125 47.375V68.875C58.125 71.8313 60.5438 74.25 63.5 74.25ZM101.286 38.7212L105.318 34.69C106.311 33.69 106.869 32.3374 106.869 30.9275C106.869 29.5176 106.311 28.165 105.318 27.165L105.264 27.1113C104.264 26.1174 102.911 25.5595 101.501 25.5595C100.091 25.5595 98.7387 26.1174 97.7388 27.1113L93.7075 31.1425C85.1469 24.2535 74.4883 20.4983 63.5 20.5C37.7 20.5 15.77 41.785 15.125 67.585C14.9512 74.0458 16.0741 80.4759 18.4273 86.4954C20.7806 92.5149 24.3165 98.0017 28.8261 102.632C33.3357 107.261 38.7275 110.94 44.683 113.451C50.6385 115.962 57.0369 117.254 63.5 117.25C72.6069 117.255 81.53 114.687 89.2416 109.843C96.9531 104.999 103.14 98.0747 107.088 89.8683C111.037 81.662 112.587 72.5072 111.561 63.4584C110.534 54.4095 106.973 45.8346 101.286 38.7212V38.7212ZM63.5 106.5C42.6988 106.5 25.875 89.6762 25.875 68.875C25.875 48.0738 42.6988 31.25 63.5 31.25C84.3013 31.25 101.125 48.0738 101.125 68.875C101.125 89.6762 84.3013 106.5 63.5 106.5Z" fill="#38B2AC"/>
<path d="M13.277 37H6.87V6.298H24.457V11.63H13.277V19.542H23.683V24.874H13.277V37Z" fill="#38B2AC"/>
</g>
<defs>
<clipPath id="clip0">
<rect width="128" height="128" fill="white"/>
</clipPath>
</defs>
</svg>
